<svg xmlns="http://www.w3.org/2000/svg" width="1005" height="961"><path fill="#FEFEFE" d="M84 0c6.17.4 9.841 2.401 14.875 5.875l4.543 3.035 2.318 1.567c3.455 2.324 6.952 4.58 10.451 6.836l2.09 1.353c5.825 3.769 11.679 7.49 17.536 11.209a2268 2268 0 0 1 23.654 15.234c6.087 3.966 12.21 7.875 18.345 11.766 8.498 5.39 16.938 10.86 25.358 16.37 8.27 5.405 16.588 10.737 24.915 16.055a2879 2879 0 0 1 17.415 11.2c6.981 4.53 13.988 9.018 21 13.5 7.67 4.904 15.331 9.822 22.969 14.777 6.327 4.1 12.679 8.162 19.031 12.223 7.67 4.904 15.331 9.822 22.969 14.777 6.327 4.1 12.679 8.162 19.031 12.223 7.67 4.904 15.331 9.822 22.969 14.777 6.327 4.1 12.679 8.162 19.031 12.223a5550 5550 0 0 1 31.46 20.272A4962 4962 0 0 0 451.5 233c13.287 8.496 13.287 8.496 19.288 12.378q2.001 1.294 4.006 2.582c3.88 2.499 7.709 5.061 11.515 7.673l2.74 1.853a368 368 0 0 1 5.267 3.628l2.418 1.624 2.132 1.47c2.199 1.057 2.199 1.057 4.768.024 2.498-1.3 4.578-2.755 6.803-4.482 8.293-6.166 17.116-11.521 25.85-17.032 3.859-2.444 7.695-4.92 11.525-7.405l2.076-1.346L556 230a3095 3095 0 0 1 27.625-17.75c8.559-5.432 17.062-10.944 25.544-16.494 8.271-5.406 16.589-10.738 24.916-16.056a2877 2877 0 0 0 17.415-11.2 3535 3535 0 0 1 20.813-13.375 2928 2928 0 0 0 22.875-14.75A1985 1985 0 0 1 716 127c9.606-6.096 19.153-12.277 28.683-18.49a3034 3034 0 0 1 30.13-19.385c7.842-4.98 15.649-10.01 23.43-15.085 6.792-4.425 13.614-8.8 20.444-13.165a5132 5132 0 0 0 31.322-20.18A3129 3129 0 0 1 876 24a3042 3042 0 0 0 20.313-13l2.104-1.355a285 285 0 0 0 10.77-7.332C912.527.046 914.89-.632 919 0a238 238 0 0 1-6.71 19.98l-1.092 2.864q-1.782 4.674-3.573 9.343l-2.545 6.672q-2.678 7.017-5.361 14.032-3.959 10.35-7.907 20.703c-5.71 14.967-11.428 29.931-17.145 44.895l-9.292 24.323-1.319 3.453c-6.661 17.442-13.3 34.893-19.926 52.35a15377 15377 0 0 1-18.249 47.802 14508 14508 0 0 0-17.193 45.083q-10.005 26.355-20.063 52.688l-1.306 3.42q-6.466 16.935-12.943 33.863-3.246 8.484-6.49 16.97l-2.736 7.145q-1.905 4.973-3.806 9.95l-1.112 2.896c-2.857 7.484-5.56 15.017-8.232 22.568l55.813 12.75 2.127.486a183651 183651 0 0 0 140.56 32.046q25.75 5.86 51.5 11.718c0 4 0 4-1.293 5.5l-1.894 1.5c-3.852 3.176-7.537 6.473-11.188 9.875a1127 1127 0 0 1-14.098 12.848A1184 1184 0 0 0 965 535.5a1550 1550 0 0 1-13.437 12.188A1297 1297 0 0 0 943 555.5a1551 1551 0 0 1-13.437 12.188A1297 1297 0 0 0 921 575.5a1551 1551 0 0 1-13.437 12.188A1297 1297 0 0 0 899 595.5a1551 1551 0 0 1-13.437 12.188A1297 1297 0 0 0 877 615.5a1551 1551 0 0 1-13.437 12.188A1297 1297 0 0 0 855 635.5a1551 1551 0 0 1-13.437 12.188c-3.387 3.056-6.745 6.142-10.104 9.228q-4.673 4.29-9.396 8.521c-3.887 3.487-7.731 7.016-11.563 10.563-4.624 4.28-9.28 8.518-13.973 12.723A1184 1184 0 0 0 788 696.5a1550 1550 0 0 1-13.437 12.188A1297 1297 0 0 0 766 716.5a1551 1551 0 0 1-13.437 12.188A1297 1297 0 0 0 744 736.5a1551 1551 0 0 1-13.437 12.188A1297 1297 0 0 0 722 756.5a1551 1551 0 0 1-13.437 12.188A1297 1297 0 0 0 700 776.5a1551 1551 0 0 1-13.437 12.188A1297 1297 0 0 0 678 796.5a1551 1551 0 0 1-13.437 12.188A1297 1297 0 0 0 656 816.5a1551 1551 0 0 1-13.437 12.188A1297 1297 0 0 0 634 836.5a1551 1551 0 0 1-13.437 12.188A1297 1297 0 0 0 612 856.5a1551 1551 0 0 1-13.437 12.188A1297 1297 0 0 0 590 876.5a1551 1551 0 0 1-13.437 12.188A1297 1297 0 0 0 568 896.5a1551 1551 0 0 1-13.437 12.188A1297 1297 0 0 0 546 916.5a1490 1490 0 0 1-13.418 12.168 765 765 0 0 0-5.695 5.195l-1.612 1.485q-2.258 2.084-4.513 4.172a111 111 0 0 1-5.426 4.582c-2.101 1.707-3.71 3.36-5.399 5.46-4.173 4.964-4.173 4.964-6.937 6.438-4.115-.336-6.008-2.734-8.75-5.625-3.545-3.653-7.133-7.097-10.996-10.406-2.93-2.559-5.778-5.2-8.629-7.844a1144 1144 0 0 0-14.098-12.848A1184 1184 0 0 1 452 911.5a1270 1270 0 0 0-11-10c-6.226-5.59-12.38-11.255-18.541-16.916-5.134-4.716-10.271-9.427-15.459-14.084-6.226-5.59-12.38-11.255-18.541-16.916a2077 2077 0 0 0-17.897-16.271c-3.385-3.056-6.743-6.142-10.101-9.227q-4.707-4.32-9.461-8.586a1442 1442 0 0 1-12.541-11.416q-4.673-4.29-9.397-8.521c-4.454-3.997-8.851-8.054-13.243-12.12a1071 1071 0 0 0-12.292-11.166A1184 1184 0 0 1 295 768.5a1270 1270 0 0 0-11-10 1442 1442 0 0 1-12.541-11.416q-4.673-4.29-9.397-8.521c-4.454-3.997-8.851-8.054-13.243-12.12a1084 1084 0 0 0-12.3-11.173c-5.39-4.856-10.719-9.778-16.06-14.686a2077 2077 0 0 0-17.897-16.271c-3.385-3.056-6.743-6.142-10.101-9.227q-4.707-4.32-9.461-8.586c-4.207-3.775-8.377-7.59-12.54-11.414q-4.705-4.32-9.46-8.586c-6.768-6.076-13.457-12.238-20.148-18.398-6.271-5.776-6.271-5.776-12.665-11.414-4.686-4.058-9.173-8.33-13.694-12.57-3.744-3.505-7.527-6.943-11.415-10.29-3.445-3.031-6.795-6.166-10.16-9.286A810 810 0 0 0 83 575.5 961 961 0 0 1 71.5 565c-4.624-4.28-9.28-8.518-13.973-12.723A1184 1184 0 0 1 49 544.5a1270 1270 0 0 0-11-10c-3.688-3.31-7.35-6.647-11-10a1457 1457 0 0 0-11.125-10.125l-2.406-2.176a305 305 0 0 0-5.313-4.617l-2.781-2.394-2.54-2.145C1 501 1 501 1 497l2.507-.56q68.848-15.374 137.68-30.815l3.459-.776 30.164-6.768q26.938-6.044 53.878-12.081l3.652-.819L251 441c-15.535-41.022-15.535-41.022-31.187-82a14541 14541 0 0 1-18.125-47.5 36997 36997 0 0 0-28.03-73.544q-7.236-18.943-14.468-37.887l-3.932-10.3-1.311-3.434-7.936-20.776a37467 37467 0 0 1-27.664-72.597 29540 29540 0 0 0-19.722-51.774l-1.361-3.565-2.609-6.83-2.439-6.39c-1.624-4.257-3.251-8.51-4.924-12.748l-1.394-3.542-1.143-2.862C84 3 84 3 84 0m52 63c2.094 7.394 4.62 14.556 7.367 21.73l1.293 3.403q1.74 4.575 3.487 9.146 1.853 4.858 3.7 9.718 3.83 10.058 7.668 20.111 2.12 5.554 4.236 11.107a60954 60954 0 0 0 16.937 44.353q5.97 15.622 11.937 31.244l1.32 3.455a27897 27897 0 0 1 19.925 52.347A14438 14438 0 0 0 231 314.5q9.197 23.985 18.313 48a29952 29952 0 0 0 21.062 55.313l1.36 3.562 5.05 13.227c1.616 4.23 3.233 8.459 4.888 12.673l1.366 3.487 1.108 2.791c.86 2.47 1.406 4.874 1.853 7.447l-3.2.328c-5.95.749-11.758 2.114-17.605 3.426l-3.934.874q-5.423 1.206-10.842 2.421-3.463.775-6.927 1.547c-34.088 7.598-68.147 15.322-102.205 23.055l-16.236 3.685-3.166.718C99.605 502.106 77.306 507.067 55 512c1.515 3.19 3.035 5.23 5.633 7.645l2.195 2.052 2.297 2.115 2.227 2.08a508 508 0 0 0 12.79 11.48c2.75 2.41 5.431 4.889 8.108 7.378l5.079 4.704a1882 1882 0 0 0 21.109 19.234c3.385 3.055 6.743 6.14 10.101 9.226q4.707 4.32 9.461 8.586c6.226 5.59 12.38 11.255 18.541 16.916a2077 2077 0 0 0 17.897 16.271c3.386 3.057 6.744 6.143 10.103 9.23q4.673 4.288 9.397 8.52c4.454 3.997 8.851 8.054 13.243 12.12 4.065 3.758 8.169 7.47 12.292 11.166 2.858 2.575 5.694 5.174 8.527 7.777a1270 1270 0 0 0 11 10c6.226 5.59 12.38 11.255 18.541 16.916a2077 2077 0 0 0 17.897 16.271c3.386 3.057 6.744 6.143 10.103 9.23q4.673 4.288 9.397 8.52c4.454 3.997 8.851 8.054 13.243 12.12 4.065 3.758 8.169 7.47 12.292 11.166 2.858 2.575 5.694 5.174 8.527 7.777a1270 1270 0 0 0 11 10c6.226 5.59 12.38 11.255 18.541 16.916a2077 2077 0 0 0 17.897 16.271c3.386 3.057 6.744 6.143 10.103 9.23q4.673 4.288 9.397 8.52a974 974 0 0 1 11.687 10.688c3.378 3.13 6.76 6.245 10.25 9.25 4.669 4.033 9.132 8.287 13.632 12.507 3.747 3.508 7.534 6.947 11.423 10.298 4.548 3.999 8.956 8.158 13.399 12.274a1882 1882 0 0 0 21.108 19.234c2.869 2.588 5.718 5.198 8.563 7.812 3.824 3.51 7.653 7.015 11.5 10.5l2.344 2.125A90 90 0 0 0 502 921c4.488-3.864 8.861-7.758 13-12 4.414-4.51 8.892-8.845 13.676-12.96 2.948-2.588 5.823-5.248 8.699-7.915 4.664-4.323 9.362-8.603 14.098-12.848 2.858-2.575 5.694-5.174 8.527-7.777 4.453-4.092 8.937-8.148 13.438-12.187 2.868-2.59 5.717-5.199 8.562-7.813 4.453-4.092 8.937-8.148 13.438-12.187 2.868-2.59 5.717-5.199 8.562-7.813 4.453-4.092 8.937-8.148 13.438-12.187 2.868-2.59 5.717-5.199 8.562-7.813 4.453-4.092 8.937-8.148 13.438-12.187 2.868-2.59 5.717-5.199 8.562-7.813 4.453-4.092 8.937-8.148 13.438-12.187 2.868-2.59 5.717-5.199 8.562-7.813 4.453-4.092 8.937-8.148 13.438-12.187 2.868-2.59 5.717-5.199 8.562-7.813 4.453-4.092 8.937-8.148 13.438-12.187 3.386-3.057 6.744-6.143 10.103-9.23q4.673-4.288 9.396-8.52a975 975 0 0 0 11.688-10.688c3.421-3.17 6.847-6.323 10.375-9.375 5.223-4.52 10.253-9.251 15.32-13.945 12.4-11.477 12.4-11.477 17.492-15.867 4.687-4.058 9.174-8.33 13.695-12.57 3.744-3.505 7.527-6.943 11.415-10.29 3.445-3.03 6.793-6.165 10.158-9.283 4.097-3.794 8.234-7.54 12.393-11.268 2.858-2.575 5.694-5.174 8.527-7.777 4.453-4.092 8.937-8.148 13.438-12.187 2.868-2.59 5.717-5.199 8.562-7.813 4.453-4.092 8.937-8.148 13.438-12.187 2.868-2.59 5.717-5.199 8.562-7.813 4.453-4.092 8.937-8.148 13.438-12.187 2.868-2.59 5.717-5.199 8.562-7.813 4.45-4.09 8.93-8.144 13.43-12.18a1250 1250 0 0 0 8.695-7.945c3.881-3.569 7.8-7.085 11.785-10.54 4.42-3.881 8.747-7.867 13.09-11.835-2.844-1.539-5.474-2.471-8.623-3.187l-2.812-.647-3.075-.69-3.27-.748q-5.419-1.234-10.841-2.458l-7.706-1.756q-8.25-1.879-16.5-3.749-11.84-2.685-23.676-5.38a72970 72970 0 0 0-37.313-8.482 62599 62599 0 0 1-55.26-12.576l-10.371-2.363q-17.462-3.979-34.924-7.952l-2.79-.635L717 460c2.036-7.173 4.463-14.12 7.148-21.074l1.226-3.202q1.997-5.207 4.001-10.411l2.826-7.372q2.564-6.694 5.133-13.387c4.342-11.31 8.665-22.628 12.986-33.947l3.941-10.323A26076 26076 0 0 0 771.5 315a28667 28667 0 0 1 19.875-52.187l1.321-3.46 10.637-27.842 9.292-24.323 1.319-3.453a26607 26607 0 0 0 18.744-49.235 18761 18761 0 0 1 19.062-50l1.118-2.92q1.072-2.8 2.145-5.6 1.02-2.662 2.037-5.325a887 887 0 0 1 5.054-12.92l1.007-2.531q.944-2.366 1.908-4.723c.719-1.805 1.358-3.641 1.981-5.481l-1-2c-12.969 8.231-25.88 16.529-38.639 25.082C816.613 95.28 805.805 102.387 795 109.5c-14.543 9.576-29.072 19.171-43.543 28.857a5688 5688 0 0 1-7.894 5.268q-6.509 4.338-13.012 8.683L718 160.688l-2.751 1.835c-14.933 9.963-29.915 19.85-44.916 29.708-16.014 10.53-31.926 21.207-47.788 31.966-8.435 5.717-16.901 11.368-25.47 16.881-6.365 4.096-12.662 8.286-18.95 12.499a4006 4006 0 0 1-31.73 21.052l-2.99 1.963c-7.867 5.167-7.867 5.167-11.805 7.742q-4.13 2.702-8.256 5.412l-2.459 1.601a146 146 0 0 0-13.756 10.244c-2.429 1.607-4.241 2.132-7.129 2.409-2.191-1.189-2.191-1.189-4.562-3.113-5.071-3.905-10.268-7.492-15.625-10.992l-2.574-1.689-5.411-3.543A3669 3669 0 0 1 423.5 252.5c-16.65-11.272-33.391-22.396-50.197-33.434a5154 5154 0 0 1-33.717-22.339q-6.318-4.218-12.64-8.43l-4.923-3.281-2.446-1.631-9.883-6.59-4.837-3.224q-5.467-3.643-10.93-7.291a2665 2665 0 0 0-22.277-14.723q-4.662-3.049-9.322-6.1l-2.01-1.316c-8.386-5.492-16.758-11.005-25.13-16.516a27943 27943 0 0 0-35.375-23.25 65895 65895 0 0 1-43.11-28.3l-2.001-1.315a1103 1103 0 0 1-9.345-6.203l-3.31-2.225-2.896-1.958C137.285 62.91 137.285 62.91 136 63"/><path fill="#FEFEFE" d="M269 173c4.888.488 8.173 2.916 12.047 5.707l4.31 3.03 2.294 1.619c3.984 2.789 8.019 5.502 12.052 8.218l2.553 1.723q3.996 2.696 7.994 5.39l2.832 1.91a7663 7663 0 0 0 40.094 26.85c12.413 8.258 24.781 16.582 37.137 24.928 16.805 11.36 16.805 11.36 33.67 22.63a872 872 0 0 1 12.002 8.095c7.543 5.159 15.063 10.041 23.184 14.25 32.534 16.883 32.534 16.883 37.017 31.008 2.711 11.528 2.166 23.458 1.689 35.204-.184 5.686-.12 11.37-.088 17.058.022 9.824-.109 19.636-.346 29.457-.344 14.196-.451 28.387-.504 42.587-.091 23.043-.37 46.078-.769 69.118a7179 7179 0 0 0-.86 67.087l-.018 2.094q-.083 10.41-.16 20.822C494.691 669.861 493.951 727.93 493 786c-4.47-.858-6.889-3.413-10.062-6.5-4.034-3.83-8.088-7.525-12.438-11-4.755-3.815-9.202-7.878-13.646-12.043-4.317-4.022-8.788-7.76-13.416-11.422-7.24-6.044-7.24-6.044-8.059-10.131l.006-3.548-.018-1.992c-.013-2.207.01-4.412.032-6.62q-.004-2.394-.013-4.789c-.011-4.39.009-8.78.034-13.169.021-4.733.014-9.465.01-14.198q-.002-12.301.041-24.602c.041-11.857.054-23.714.06-35.57.011-19.237.045-38.474.092-57.71a42539 42539 0 0 0 .106-59.554l.02-17.332c.051-47.94.14-95.88.251-143.82l-1.892-.93c-2.004-1.017-3.754-2.133-5.585-3.433l-2.003-1.418-2.145-1.531-2.264-1.608c-7.645-5.439-15.248-10.934-22.845-16.439-3.752-2.717-7.51-5.429-11.266-8.141l-4.5-3.25-2.25-1.625-6.75-4.875-2.25-1.625-4.502-3.252a8139 8139 0 0 0-11.213-8.088 2369 2369 0 0 1-23.285-16.973 1405 1405 0 0 0-19.879-14.433l-1.57-1.162c-1.841-1.3-1.841-1.3-4.153-2.4-9.67-5.404-11.89-14.631-15.398-24.505q-1.012-2.736-2.033-5.47a1770 1770 0 0 1-4.15-11.248c-1.984-5.406-4.06-10.772-6.172-16.13l-.988-2.508-2.844-7.206q-1.742-4.41-3.465-8.828l-1.453-3.7c-.98-2.76-1.674-5.339-2.145-8.222M730 173l3 1a53 53 0 0 1-2.699 9.76l-1.056 2.79-1.147 2.997-1.192 3.14a7127 7127 0 0 1-10.377 27.083c-2.036 5.297-4.05 10.598-5.98 15.933a690 690 0 0 1-1.971 5.353 246 246 0 0 0-2.107 5.888C703.74 254.126 699.208 257.678 693 262l-2.112 1.537a342 342 0 0 1-5.888 4.15l-4.441 3.11-2.278 1.596c-3.762 2.65-7.491 5.346-11.218 8.045l-2.26 1.635-4.537 3.286c-3.752 2.717-7.51 5.429-11.266 8.141l-2.252 1.627a8046 8046 0 0 1-11.213 8.088 2368 2368 0 0 0-23.285 16.973c-5.949 4.395-11.92 8.754-17.95 13.037-5.808 4.127-11.58 8.305-17.35 12.486l-2.212 1.601-1.967 1.426A186 186 0 0 1 568 352c-.446 2.838-.446 2.838-.351 6.244l-.005 1.972c-.002 2.201.018 4.403.038 6.605l.006 4.758q.007 5.19.039 10.378c.034 5.629.047 11.257.059 16.885q.029 12.26.078 24.519c.051 12.92.068 25.84.078 38.76l.012 13.256.003 3.346q.017 18.87.049 37.74l.005 3.487c.031 18.629.096 37.258.17 55.886q.113 28.682.095 57.364c-.005 11.796.028 23.59.108 35.386.052 8.09.06 16.177.033 24.266-.014 4.666-.008 9.33.05 13.997.054 4.277.05 8.55.004 12.827q-.01 2.314.043 4.627c.135 6.218.243 12.082-4.09 16.967-2.934 2.879-6.114 5.299-9.424 7.73a879 879 0 0 0-5.5 4.5l-2.719 2.188c-3.021 2.512-5.905 5.136-8.781 7.812-4.641 4.318-9.436 8.374-14.375 12.352-3.984 3.26-7.81 6.691-11.625 10.148l-2-1c-.766-58.794-1.325-117.588-1.61-176.387a49418 49418 0 0 0-.105-20.854l-.011-2.096c-.118-22.374-.362-44.744-.672-67.115a5647 5647 0 0 1-.54-71.001 2277 2277 0 0 0-.448-42.48c-.186-9.73-.226-19.454-.154-29.185.036-5.608.012-11.198-.186-16.803-1.07-31.805-1.07-31.805 6.476-41.275 9.148-9.354 20.88-15.46 32.448-21.29 7-3.568 13.368-8.029 19.802-12.514a976 976 0 0 1 4.981-3.316q5.886-3.914 11.77-7.833l4.977-3.311a2427 2427 0 0 0 29.464-19.883 1536 1536 0 0 1 19.875-13.375q5.318-3.53 10.628-7.067l2.285-1.52a8225 8225 0 0 0 47.957-32.132l2.27-1.533 4.38-2.962 4.205-2.84a541 541 0 0 0 10.72-7.428l2.22-1.567q2.102-1.486 4.184-2.998c1.642-1.158 3.358-2.207 5.084-3.235"/><path fill="#FEFEFE" d="M174 111c3.512.549 5.929 1.337 8.852 3.352l2.277 1.546 2.496 1.727q2.797 1.9 5.598 3.797l3.192 2.166c7.165 4.838 14.416 9.548 21.648 14.287l4.5 2.952 2.194 1.437q2.138 1.405 4.268 2.823c3.13 2.08 6.259 4.105 9.525 5.965 8.142 4.824 10.594 9.085 13.45 17.948a445 445 0 0 0 2.55 6.555 895 895 0 0 1 2.916 7.497l1.03 2.678 1.067 2.77 2.24 5.813q2.99 7.757 5.976 15.515l3.629 9.42a23853 23853 0 0 1 29.41 76.71 19788 19788 0 0 0 21.873 57.046q8.176 21.24 16.309 42.496a31498 31498 0 0 0 18.078 47.126l3.839 9.991c3.644 9.482 7.298 18.96 11.013 28.414l1.729 4.414q1.536 3.92 3.092 7.828l1.327 3.383 1.138 2.87C380 502 380 502 380 506c-11.748 3.016-23.546 5.722-35.395 8.309l-5.574 1.223c-9.018 1.98-18.038 3.948-27.058 5.918q-7.703 1.682-15.407 3.366l-3.075.672a3200 3200 0 0 0-37.015 8.297c-4.713 1.087-9.43 2.16-14.145 3.236q-3.667.845-7.33 1.716c-3.337.793-6.68 1.558-10.024 2.318-.935.23-1.87.462-2.832.7-7.466 1.65-13.711.775-21.145-.755l-2.11-.422c-5.809-1.163-11.602-2.397-17.394-3.64l-5.565-1.188q-5.791-1.238-11.58-2.481a7029 7029 0 0 0-14.84-3.168q-5.728-1.22-11.454-2.45-2.738-.586-5.475-1.167-3.813-.811-7.623-1.636l-2.275-.48c-3.478-.758-6.601-1.553-9.684-3.368v-2a5101 5101 0 0 1 70.007-16.68q5.97-1.377 11.94-2.758 11.228-2.594 22.454-5.184 12.744-2.94 25.486-5.885 25.335-5.852 50.671-11.699L310 473c-2.116-7.389-4.62-14.554-7.367-21.73l-1.293-3.403q-1.74-4.575-3.487-9.146-1.853-4.858-3.7-9.718-3.83-10.058-7.668-20.111l-4.236-11.107a60954 60954 0 0 0-16.937-44.353q-5.97-15.622-11.937-31.245l-1.32-3.454a27897 27897 0 0 1-19.925-52.347 15296 15296 0 0 0-18.24-47.782 15245 15245 0 0 1-20.094-52.723 5022 5022 0 0 0-10.882-28.483l-1.86-4.825a2714 2714 0 0 0-3.399-8.766l-1.48-3.834-1.283-3.305C174 114 174 114 174 111M827.402 111.255 829 112c-4.805 14.379-10.225 28.508-15.69 42.645l-3.068 7.936c-4.229 10.956-8.39 21.938-12.555 32.919a14687 14687 0 0 1-18.687 49q-9.197 23.985-18.313 48-10.004 26.355-20.062 52.688l-1.317 3.449-6.629 17.35-8.113 21.24-1.355 3.548q-3.323 8.7-6.643 17.4l-1.292 3.386-2.546 6.67q-3.69 9.669-7.39 19.335-2.268 5.924-4.531 11.852-1.048 2.741-2.099 5.482-1.428 3.727-2.85 7.455l-.843 2.192c-1.191 3.128-2.248 6.198-3.017 9.453l3.84.354c5.35.598 10.502 1.744 15.735 2.984l3.1.722q5.079 1.185 10.153 2.381 3.604.843 7.208 1.683 7.647 1.786 15.293 3.58 11.886 2.788 23.776 5.565l23.69 5.54c15.039 3.52 30.082 7.026 45.13 10.507l2.524.584q10.227 2.366 20.455 4.727l8.112 1.874q3.543.82 7.086 1.636l5.698 1.317C886 518 886 518 889 519v3a8754 8754 0 0 1-37.32 8.318 3796 3796 0 0 0-17.332 3.86 2621 2621 0 0 1-16.748 3.716q-3.187.702-6.367 1.428c-20.388 4.644-20.388 4.644-31.233 1.678-2.58-.57-5.168-1.107-7.755-1.647-5.295-1.112-10.577-2.286-15.862-3.447l-7.017-1.534q-9.25-2.023-18.5-4.052-9.153-2.006-18.307-4.007l-21.567-4.72A36345 36345 0 0 0 624 507c-1.012-3.796-.982-5.997.42-9.655l1.031-2.741 1.158-2.963 1.192-3.137c1.304-3.423 2.627-6.838 3.949-10.254q1.38-3.606 2.758-7.213A5999 5999 0 0 1 643 449l2.478-6.411q4.64-12 9.304-23.991a7071 7071 0 0 0 17.655-45.91c6.89-18.074 13.8-36.138 20.75-54.188q9.432-24.491 18.813-49 7.03-18.37 14.078-36.73l1.294-3.37q3.202-8.34 6.424-16.672c3.489-9.022 6.975-18.04 10.296-27.125 1.233-3.37 2.485-6.73 3.739-10.092a356 356 0 0 0 1.652-4.576c3.156-8.928 6.13-15.012 14.517-19.935l1.976-1.295a181 181 0 0 1 5.649-3.517c9.995-6.056 19.656-12.634 29.298-19.232a2499 2499 0 0 1 7.806-5.31 758 758 0 0 0 3.976-2.726 723 723 0 0 1 5.87-3.994l1.783-1.246c4.102-2.737 4.102-2.737 7.044-2.425M110 536a51699 51699 0 0 1 21.415 4.508c9.964 2.096 19.92 4.222 29.868 6.395 4.58 1 9.162 1.987 13.751 2.947 4.502.943 8.997 1.917 13.488 2.913q2.535.553 5.08 1.074c11.093 2.278 18.205 5.005 26.398 13.163a973 973 0 0 0 4.074 3.695 939 939 0 0 1 3.613 3.43l3.868 3.645 1.815 1.709c2.527 2.358 5.124 4.629 7.743 6.884 2.324 2.016 4.604 4.075 6.887 6.137a683 683 0 0 0 9 8c3.897 3.394 7.73 6.854 11.566 10.316a537 537 0 0 0 6.372 5.621c4.194 3.652 8.293 7.406 12.402 11.153a558 558 0 0 0 8.633 7.633A652 652 0 0 1 303 641.5a683 683 0 0 0 9 8c5.59 4.871 11.075 9.859 16.578 14.828a1033 1033 0 0 0 13.36 11.86c3.236 2.843 6.426 5.738 9.625 8.625A578 578 0 0 0 358 690.5c3.895 3.393 7.728 6.852 11.563 10.313A578 578 0 0 0 376 706.5c3.897 3.394 7.73 6.854 11.566 10.316a537 537 0 0 0 6.372 5.621c4.194 3.652 8.293 7.406 12.402 11.153a558 558 0 0 0 8.633 7.633A652 652 0 0 1 422 747.5a683 683 0 0 0 9 8c3.895 3.393 7.728 6.852 11.563 10.313A578 578 0 0 0 449 771.5c5.59 4.871 11.075 9.859 16.578 14.828 4.416 3.982 8.853 7.934 13.336 11.84 14.047 12.337 14.047 12.337 14.327 15.882l-.014 3.97v2.188c0 2.392-.016 4.783-.032 7.175l-.008 4.969c-.008 4.363-.028 8.726-.05 13.089-.02 4.45-.03 8.901-.04 13.352-.02 8.736-.055 17.471-.097 26.207-4.198-.84-6.484-2.974-9.5-5.875l-3.203-3.008-1.65-1.563a710 710 0 0 0-7.897-7.304l-1.536-1.41a351 351 0 0 0-8.026-7.153c-4.686-4.056-9.172-8.328-13.692-12.566-3.771-3.53-7.58-6.995-11.492-10.367-4.215-3.689-8.31-7.512-12.43-11.306q-3.847-3.54-7.699-7.073l-1.515-1.39c-3.91-3.582-7.85-7.13-11.798-10.673-3.385-3.055-6.743-6.14-10.101-9.226q-4.707-4.32-9.461-8.586c-4.207-3.775-8.377-7.59-12.54-11.414q-4.705-4.32-9.46-8.586a1442 1442 0 0 1-12.541-11.416q-4.673-4.29-9.397-8.521a974 974 0 0 1-11.687-10.688c-3.378-3.13-6.76-6.245-10.25-9.25-4.669-4.033-9.132-8.287-13.632-12.507-3.745-3.505-7.527-6.943-11.415-10.29-3.445-3.03-6.793-6.165-10.158-9.283-4.097-3.794-8.234-7.54-12.393-11.268A1184 1184 0 0 1 261 676.5a1270 1270 0 0 0-11-10c-4.207-3.775-8.377-7.59-12.54-11.414q-4.705-4.32-9.46-8.586c-4.207-3.775-8.377-7.59-12.54-11.414q-4.705-4.32-9.46-8.586c-4.207-3.775-8.377-7.59-12.54-11.414q-4.705-4.32-9.46-8.586a1442 1442 0 0 1-12.541-11.416q-4.673-4.29-9.397-8.521A1011 1011 0 0 1 150.5 576a1342 1342 0 0 0-16.5-15q-3.641-3.256-7.266-6.531a714 714 0 0 0-4.423-3.969 1059 1059 0 0 1-5.374-4.812l-1.735-1.527c-2.897-2.627-4.492-4.317-5.202-8.161M892 536c-.31 4.203-1.733 6.118-4.845 8.892l-1.592 1.358-1.645 1.453a537 537 0 0 1-3.34 2.924c-2.196 1.91-4.355 3.86-6.515 5.81l-2.434 2.184A1098 1098 0 0 0 862.5 567c-4.624 4.28-9.28 8.518-13.973 12.723A1184 1184 0 0 0 840 587.5a1550 1550 0 0 1-13.437 12.188A1297 1297 0 0 0 818 607.5a1551 1551 0 0 1-13.437 12.188A1297 1297 0 0 0 796 627.5a1551 1551 0 0 1-13.437 12.188c-3.387 3.056-6.745 6.142-10.104 9.228q-4.673 4.29-9.396 8.521c-3.887 3.487-7.731 7.016-11.563 10.563-4.624 4.28-9.28 8.518-13.973 12.723A1184 1184 0 0 0 729 688.5a1550 1550 0 0 1-13.437 12.188A1297 1297 0 0 0 707 708.5a1551 1551 0 0 1-13.437 12.188A1297 1297 0 0 0 685 728.5a1551 1551 0 0 1-13.437 12.188c-3.387 3.056-6.745 6.142-10.104 9.228q-4.673 4.29-9.396 8.521c-3.887 3.487-7.731 7.016-11.563 10.563-4.624 4.28-9.28 8.518-13.973 12.723A1184 1184 0 0 0 618 789.5a1550 1550 0 0 1-13.437 12.188A1297 1297 0 0 0 596 809.5a1551 1551 0 0 1-13.437 12.188A1297 1297 0 0 0 574 829.5a1551 1551 0 0 1-13.437 12.188A1297 1297 0 0 0 552 849.5c-3.65 3.353-7.312 6.69-11 10-3.666 3.29-7.308 6.607-10.937 9.938l-1.512 1.382a678 678 0 0 0-7.653 7.102l-1.508 1.408a1055 1055 0 0 0-4.113 3.87C513 885 513 885 510 885c-.125-9.737-.19-19.472-.179-29.21a914 914 0 0 0-.078-13.565 631 631 0 0 1-.039-13.11q.003-2.492-.052-4.983c-.272-12.974-.272-12.974 3.74-18.32 2.755-2.524 5.544-4.682 8.608-6.812 1.37-1.17 2.728-2.353 4.063-3.562l1.91-1.66A652 652 0 0 0 535 787.5a829 829 0 0 1 10.938-9.687A718 718 0 0 0 553 771.5a829 829 0 0 1 10.938-9.687c3.237-2.846 6.429-5.742 9.628-8.63a537 537 0 0 1 6.371-5.62c3.229-2.811 6.4-5.679 9.563-8.563a643 643 0 0 1 11.473-10.223A652 652 0 0 0 608 722.5a829 829 0 0 1 10.938-9.687c3.237-2.846 6.429-5.742 9.628-8.63a537 537 0 0 1 6.371-5.62c3.229-2.811 6.4-5.679 9.563-8.563a643 643 0 0 1 11.473-10.223A652 652 0 0 0 663 673.5a829 829 0 0 1 10.938-9.687c3.237-2.846 6.429-5.742 9.628-8.63a537 537 0 0 1 6.371-5.62c3.229-2.811 6.4-5.679 9.563-8.563a643 643 0 0 1 11.473-10.223A652 652 0 0 0 718 624.5a829 829 0 0 1 10.938-9.687c3.237-2.846 6.429-5.742 9.628-8.63a537 537 0 0 1 6.371-5.62c3.229-2.811 6.4-5.679 9.563-8.563a643 643 0 0 1 11.473-10.223A652 652 0 0 0 773 575.5a833 833 0 0 1 13-11.5l1.268-1.37c5.46-5.458 11.622-6.503 19.002-7.997q1.967-.423 3.934-.852c3.482-.754 6.968-1.482 10.457-2.206 3.59-.75 7.176-1.525 10.762-2.298 4.259-.918 8.518-1.835 12.78-2.742a1257 1257 0 0 0 32.61-7.41q3.884-.936 7.769-1.867l3.07-.746C890 536 890 536 892 536"/></svg>