<svg xmlns="http://www.w3.org/2000/svg" xmlns:xlink="http://www.w3.org/1999/xlink" xml:space="preserve" width="518.54199" height="527.23254"><defs><clipPath id="b" clipPathUnits="userSpaceOnUse"><path d="M-275.215 568.837H320.06v-841.89h-595.275z" style="stroke-width:.999998"/></clipPath><clipPath id="c" clipPathUnits="userSpaceOnUse"><path d="M274.388 274.292c-27.668-9.911-20.647-43.361-20.647-43.361 9.497-78.879 62.358-109.851 62.358-109.851 18.582-13.628 39.231-2.064 39.231-2.064 54.513 30.973 64.837 106.546 64.837 106.546 8.672 40.883-23.952 49.556-23.952 49.556-22.339 7.805-43.052 10.436-60.831 10.435-36.781 0-60.996-11.261-60.996-11.261" style="stroke-width:.999998"/></clipPath><clipPath id="e" clipPathUnits="userSpaceOnUse"><path d="M-12.983 100.146h69.56V0h-69.56z" style="stroke-width:.999998"/></clipPath><linearGradient id="a" x1="0" x2="1" y1="0" y2="0" gradientTransform="scale(172.72559 -172.72559) rotate(40 2.95 1.339)" gradientUnits="userSpaceOnUse" spreadMethod="pad"><stop offset="0" style="stop-opacity:1;stop-color:#e6e7e8"/><stop offset="0.00561798" style="stop-opacity:1;stop-color:#e6e7e8"/><stop offset="0.08722457" style="stop-opacity:1;stop-color:#c2c4c6"/><stop offset="0.168539" style="stop-opacity:1;stop-color:#c2c4c6"/><stop offset="0.50190656" style="stop-opacity:1;stop-color:#f1f2f2"/><stop offset="0.522472" style="stop-opacity:1;stop-color:#f1f2f2"/><stop offset="0.926966" style="stop-opacity:1;stop-color:#8a8c8e"/><stop offset="1" style="stop-opacity:1;stop-color:#8a8c8e"/></linearGradient><linearGradient xlink:href="#a" id="d" x1="0" x2="1" y1="0" y2="0" gradientTransform="scale(172.72559 -172.72559) rotate(40 2.95 1.339)" gradientUnits="userSpaceOnUse" spreadMethod="pad"/></defs><path d="M0 0s53.272 24.778 121.825.826c0 0 32.625-8.672 23.952-49.555 0 0-10.324-75.575-64.836-106.547 0 0-20.648-11.563-39.232 2.065 0 0-52.859 30.973-62.357 109.85 0 0-7.022 33.45 20.648 43.361" clip-path="url(#b)" style="fill:#000;fill-opacity:1;fill-rule:nonzero;stroke:none" transform="matrix(3.059 0 0 -3.059 68.123 38.239)"/><g clip-path="url(#c)" transform="matrix(3.059 0 0 -3.059 -773.761 873.509)"><path d="M274.388 274.292c-27.668-9.911-20.647-43.361-20.647-43.361 9.497-78.879 62.358-109.851 62.358-109.851 18.582-13.628 39.231-2.064 39.231-2.064 54.513 30.973 64.837 106.546 64.837 106.546 8.672 40.883-23.952 49.556-23.952 49.556-22.339 7.805-43.052 10.436-60.831 10.435-36.781 0-60.996-11.261-60.996-11.261" style="fill:url(#d);stroke:none"/></g><path d="M-216.558-21.965s112.43 45.478 70.743 203.387c0 0-24.004 144.012-160.436 227.392 0 0-56.845 35.37-120.01-2.527 0 0-131.382-69.482-163.122-250.129 0 0-28.896-132.645 77.218-178.123 0 0 70.743-32.844 152.856-30.318 0 0 88.43 0 142.751 30.318" style="fill:#000;fill-opacity:1;fill-rule:nonzero;stroke:none;stroke-width:3.05901" transform="translate(620.711 63.991)"/><g clip-path="url(#e)" style="opacity:.699997" transform="matrix(3.059 0 0 -3.059 87.702 328.16)"><path d="M0 0s-23.539 43.981-7.227 74.954c0 0 11.976 25.192 63.804 25.192 0 0-39.025-1.033-55.132-30.147C1.445 69.999-11.77 47.904 0 0" style="fill:#fff;fill-opacity:1;fill-rule:nonzero;stroke:none"/></g><path d="M-160.976 143.526s26.53-101.693-57.479-151.595c0 0-53.058-36.001-149.065-34.108 0 0-87.167-1.263-148.435 37.268 0 0-44.215 24.001-50.529 73.27 0 0 68.213-42.952 180.647-45.479 0 0 99.166-2.526 154.118 30.321 0 0 54.952 32.211 70.743 90.323" style="fill:#085b99;fill-opacity:1;fill-rule:nonzero;stroke:none;stroke-width:3.05901" transform="translate(620.711 63.991)"/><path d="M-530.483 269.854s42.952 69.479 100.43 111.8c0 0 58.743 51.159 132.012-1.263 0 0-98.537 1.263-232.442-110.537" style="fill:#ff7f00;fill-opacity:1;fill-rule:nonzero;stroke:none;stroke-width:3.05901" transform="translate(620.711 63.991)"/><path d="M-167.291 182.054s-28.425 149.701-156.646 213.494c0 0-57.479 25.267-101.694-11.37 0 0 133.905 1.263 258.34-202.124" style="fill:#dd0303;fill-opacity:1;fill-rule:nonzero;stroke:none;stroke-width:3.05901" transform="translate(620.711 63.991)"/><path d="M-361.27 367.951c39.697 12.738 63.23 12.438 63.23 12.438-63.798 46.427-114.431 14.634-128.625 3.97 0 0 15.757-.474 35.959-6.078 9.627-2.673 19.55-6.182 28.969-10.208zM-528.816 50.493c49.269-89.063 168.876-92.67 168.876-92.67-158.542 0-195.177 77.06-195.177 77.06-5.883 11.17-10.07 22.893-12.882 34.884 0 0 21.377-13.18 38.703-18.956zM-521.846 157.423h70.742l-5.555 13.475h-35.71l-2.427 6.736h31.9l-3.365 9.269h-32.426l-2.786 7.158h35.634l-5.476 14.735h-62.743s24.845-34.53 12.212-51.373M-429.628 183.532l-10.107 25.265h-21.055s-3.371.419-1.264-5.054l15.026-37.482s11.502-29.892 25.821-35.787c0 0-10.107 28.635 2.527 47.16 0 0 2.524 4.21 3.368 9.685l9.266-22.734s1.682-5.479-.841-7.583h23.16s2.942.419 1.263 4.634l-16.424 41.266s-13.894 30.318-41.688 41.266c0 0 32.847-31.159 10.948-60.636M-376.364 157.42h60.005l-5.683 13.897h-18.315l-14.527 37.268h-23.374l14.527-37.268h-17.684zM-208.558 157.316h35.794l-5.895 14.423h-28.636s-8.947-.422-8.843 2.527c0 0-.315 1.997 5.999 4.209l13.374 4.634s7.999 2.576 3.79 8.422c0 0-12.634 18.106-29.055 17.684h-32.847s-3.368-4.21-7.158-9.682l-4.265 9.682h-41.214s-24.423.422-13.897-23.579l6.74-16.005s3.367-7.155 1.682-12.211h23.162s3.365-.422 1.264 4.634l-9.266 21.474s-6.317 12.215 2.949 11.793h11.37l12.634-29.477s2.102-4.634-.422-8.424h26.105s2.53-.422.423 4.212l-15.583 34.111h33.689s6.317.049 10.107-5.056c0 0-12.319-5.317-20.058-9.581 0 0-8.685-3.946-.997-12.316 0 0 7.84-10.948 29.054-11.474" style="fill:#fff;fill-opacity:1;fill-rule:nonzero;stroke:none;stroke-width:3.05901" transform="translate(620.711 63.991)"/><g style="fill:#fff;fill-opacity:1"><g style="fill:#fff;fill-opacity:1"><path d="M23.777 31.231c-1.591 0-2.662.981-2.662 2.441v1.47h3.78s.126 12.472-.017 13.779c-.143 1.307-.475 3.434-2.812 4.549-2.016.962-2.058 1.873-2.186 2.682-.167 1.05.03 1.183.794.996 3.003-.736 6.2-1.941 7.817-4.911.878-1.612 1.229-3.358 1.229-6.008V35.141c1.601-.018 2.756-1.039 2.756-2.441v-1.469zM19.575 48.047s-3.032 4.348-8.921 4.348C4.579 52.395 0 47.744 0 41.575 0 35.324 4.579 30.61 10.654 30.61c5.782 0 8.844 4.347 8.844 4.347s-1.619 1.733-3.173 1.733c-.758 0-1.325-.351-1.981-.755-.877-.542-1.873-1.156-3.689-1.156-3.454 0-6.264 3.048-6.264 6.796 0 3.669 2.81 6.654 6.264 6.654 2.05 0 3.013-.588 3.863-1.106.604-.369 1.175-.718 2.001-.718 1.75 0 3.056 1.642 3.056 1.642z" style="fill:#fff;fill-opacity:1" transform="translate(218.738 38.952) scale(2.68007)"/></g></g></svg>