<svg xmlns="http://www.w3.org/2000/svg" width="1378" height="1120"><path fill="#02A73D" d="m529.542-.14 4.302-.01q5.865-.01 11.728-.01c4.23-.002 8.46-.01 12.689-.016q13.854-.02 27.709-.024l17.342-.012q24.063-.019 48.126-.026h6.22l6.245-.002h3.13q25.044-.009 50.088-.046 25.785-.035 51.571-.037 14.448.002 28.896-.025a8525 8525 0 0 1 24.628-.012c4.175.004 8.35.003 12.526-.011C879.42-.515 921.866 5.745 963 24l2.527 1.118c26.108 11.667 50.193 27.466 71.246 46.839a235 235 0 0 0 6.227 5.48 166.3 166.3 0 0 1 20.738 21.75q2.223 2.766 4.555 5.438c29.446 33.817 48.71 77.288 58.082 120.812l.687 3.127c4.555 22.775 5.381 45.931 5.231 69.08q-.009 3.907-.013 7.813-.016 9.093-.064 18.187c-.034 6.924-.05 13.848-.065 20.773q-.048 21.292-.151 42.583 9.59-3.045 19.178-6.1l6.501-2.067c74.503-23.666 147.09-54.352 209.071-102.833l1.772-1.385c2.186-1.726 4.298-3.43 6.244-5.428C1376 268 1376 268 1378 268v657c-4.626-3.47-8.939-6.744-13.25-10.5-20.792-17.628-44.961-31.4-68.75-44.5l-2.339-1.303c-46.637-25.893-98.121-44.06-148.998-59.553-4.24-1.324-8.453-2.725-12.663-4.144a4115.804 4115.804 0 0 1 .11 18.927q.015 3.204.04 6.408c.147 18.246-.659 36.245-3.963 54.227l-.52 2.884C1122.676 914.3 1114.024 939.488 1102 964l-1.144 2.361c-8.497 17.399-19.594 33.681-31.856 48.639l-1.382 1.69c-12.382 15.018-26.082 29.53-41.618 41.31l-3.023 2.398C982.125 1092.718 932.652 1112.78 881 1119l-2.106.267c-7.542.865-15.05.879-22.633.873l-4.44.01q-6.068.01-12.135.01-6.558.005-13.116.016-14.328.02-28.657.024l-17.926.012a93586 93586 0 0 1-49.719.026h-6.43l-6.455.002h-3.234q-25.897.009-51.793.046-26.644.035-53.29.037-14.936-.002-29.873.025-12.729.023-25.458.012-6.479-.008-12.957.011c-23.239.072-46.21-.667-68.966-5.934l-3.31-.754c-20.864-4.973-41.3-12.123-60.502-21.683l-2.374-1.17c-17.13-8.516-33.337-18.39-48.103-30.579a293 293 0 0 0-4.3-3.446c-18.522-14.742-34.753-31.75-48.752-50.807a469 469 0 0 0-4.084-5.447C272.287 963.03 255.724 916.26 250 870l-.272-2.18c-.782-6.955-.857-13.835-.826-20.828l.005-3.656c.005-3.82.018-7.64.03-11.461q.008-3.906.014-7.813.017-9.531.049-19.062a5678 5678 0 0 0-30.152 9.696c-50.85 16.45-101.057 35.79-147.317 62.83a598 598 0 0 1-6.965 3.986c-19.912 11.334-38.483 24.78-56.03 39.48C5.807 923.152 2.894 925.07 0 927V265c4.574 3.43 9.005 6.788 13.374 10.437C77.718 329.023 160.38 359.667 249 387l-.008-1.916q-.101-23.259-.147-46.517-.022-11.248-.071-22.496-.046-9.823-.056-19.646-.004-5.184-.035-10.368c-.122-21.358 1.088-42.308 5.88-63.182l.759-3.333C265.215 177.962 284.097 139.21 311 106l1.244-1.556c6.761-8.405 14.219-16.113 21.818-23.757l2.757-2.784C352.452 62.34 370.642 48.619 390 38l2.546-1.397C435.049 13.478 480.886-.173 529.542-.14"/><path fill="#CED401" d="M548.792 52.724c4.23.002 8.46-.007 12.691-.014q12.387-.018 24.773-.012a22469 22469 0 0 0 28.936-.01q27.4-.013 54.8-.003c16.66.006 33.32-.006 49.98-.025q25.75-.03 51.503-.024c9.614.002 19.228 0 28.841-.014q12.275-.019 24.549-.002c4.163.006 8.326.008 12.489-.005C876.254 52.51 912.672 57.765 948 75l2.03.986C971.89 86.75 991.448 101.174 1009 118l1.605 1.523c8.305 7.913 15.56 16.274 22.395 25.477l1.268 1.674c21.085 27.872 38.34 63.267 41.732 98.326l1 2c2.714 17.058 2.274 34.57 2.203 51.785-.013 3.61-.014 7.22-.016 10.83q-.011 10.193-.043 20.387c-.023 7.753-.033 15.507-.043 23.26q-.032 23.87-.101 47.738l-7.626 1.909-2.16.541c-31.09 7.778-62.483 14.04-94.214 18.55q-2.351.34-4.703.684-4.646.672-9.297 1.316l5-7-2.344.586q-3.255.813-6.511 1.613a138 138 0 0 0-6.958 1.988c-12.064 2.973-23.93.943-34.562-5.062-4.699-2.973-7.832-5.747-9.625-11.125-.543-6.555-.53-12.264 3-18 4.856-5.25 10.292-9.565 17.61-10.241 3.124-.056 6.235-.017 9.359.053l3.494.035c4.907.049 9.812.133 14.719.215 21.278.324 42.668.382 59.92-14.144 8.778-8.869 12.075-19.222 12.085-31.418l.038-2.262c.01-4.207-.296-7.394-2.225-11.238l-1.5 2.562C1011.336 336.76 989.047 341.764 971 346l-2.294.556c-4.697 1.102-9.365 1.843-14.152 2.432-18.111 2.249-38.16 6.7-50.015 21.883-2.882 4.34-4.823 8.964-6.644 13.832-.848 2.177-1.817 4.226-2.895 6.297l-2.813-2.688c-4.538-3.894-9.626-6.204-15.187-8.312l-2.769-1.05c-6.088-1.696-12.507-1.232-18.773-1.217l-4.484-.014c-4.1-.012-8.2-.012-12.3-.01-4.424 0-8.85-.01-13.274-.02q-13-.023-26-.023-10.57-.001-21.139-.012-29.977-.026-59.956-.025h-6.532c-17.474.001-34.948-.018-52.421-.046q-26.925-.043-53.849-.04c-10.074 0-20.148-.006-30.222-.027a6944 6944 0 0 0-25.735-.009c-4.374.006-8.748.007-13.122-.01q-6.015-.024-12.031.004-2.168.005-4.335-.012c-11.126-.08-21.614 1.207-30.683 8.198l-2.414 1.825L485 389l-2 1-.629-2.02c-4.351-13.018-10.851-22.902-23.176-29.476A136 136 0 0 0 451 355l-1.83-.747c-4.72-1.871-9.29-3.014-14.295-3.816l-2.251-.383c-4.406-.738-8.814-1.328-13.249-1.867-20.346-2.86-46.806-9.023-61.063-25C356 320 356 320 356 318h-2c-2.655 13.904-1.767 26.203 5.504 38.555 8.306 11.888 22.875 17.345 36.663 19.843 11.557 1.71 23.617.705 35.259.465 3.51-.067 7.02-.108 10.531-.148l3.214-.091c8.763-.087 16.07 1.69 22.766 7.563 4.392 4.837 5.733 10.075 6.5 16.438-.744 5.745-3.165 9.132-7.187 13.062-10.743 7.645-22.194 9.813-35.25 8.313-6.443-1.244-12.727-3.09-19-5l4 6a599 599 0 0 1-34.313-4.75l-2.345-.392c-13.72-2.303-27.302-5.047-40.879-8.09-3.719-.825-7.443-1.62-11.17-2.409l-3.856-.816-7.292-1.54c-1.096-.232-2.192-.466-3.32-.706l-2.904-.614c-3.343-.782-6.623-1.731-9.921-2.683q-.142-25.039-.207-50.078c-.02-7.754-.048-15.508-.095-23.262q-.061-10.162-.074-20.325c-.005-3.573-.017-7.145-.047-10.717-.544-67.896 21.743-129.053 69.485-177.93 4.188-4.094 8.597-7.834 13.176-11.481a205 205 0 0 0 5.305-4.383C396.504 96.044 405.102 90.455 414 85l1.957-1.204c41.273-25.072 85.539-31.125 132.835-31.072"/><path fill="#CED400" d="M680.903 747.945c24.027-.288 48.079.489 72.097 1.055l2.505.059c19.552.463 38.987 1.54 58.495 2.941v46h9c1.894.21 3.784.475 5.66.813l3.106.558 3.297.629 3.511.662c20.349 3.963 40.498 9.081 60.174 15.611 3.37 1.087 6.767 2.077 10.164 3.074 6.649 1.951 13.212 3.897 19.596 6.614 2.527 1.053 5.082 2.004 7.653 2.944 41.455 15.198 80.578 34.933 118.027 58.22l3.06 1.901 2.857 1.794 2.505 1.571c2.61 1.757 5.063 3.486 7.39 5.609-.121 33.055-29.84 71.23-51.504 94.316a199 199 0 0 0-6.183 6.996c-3.457 3.97-7.29 7.307-11.313 10.688l-2.941 2.566C981.736 1026.752 963.519 1037.8 944 1047l-3.277 1.55c-19.427 8.737-39.689 14.295-60.723 17.45l-3.414.526c-15.077 1.998-30.214 1.767-45.391 1.75-4.158-.002-8.316.007-12.473.014q-12.186.018-24.37.012a21744 21744 0 0 0-28.463.01q-26.956.014-53.913.003c-16.388-.006-32.775.006-49.163.025q-25.323.03-50.646.024c-9.455-.002-18.91 0-28.367.014q-12.078.019-24.156.002c-4.096-.006-8.193-.008-12.289.005-18.306.05-36.219-.58-54.355-3.385l-2.199-.335c-19.6-3.051-39.085-9.828-56.801-18.665l-2.606-1.294c-10.564-5.293-20.822-10.747-30.394-17.706l-2.895-2.07c-17.82-13.033-34.802-28.247-48.105-45.93l-1.47-1.927C340.291 966.23 333.205 955.116 327 943l-1.155-2.22c-7.08-13.728-12.184-28.073-16.845-42.78l-.715-2.235c-7.394-23.82-7.892-49.392-7.56-74.102.042-3.481.06-6.963.08-10.444.042-6.74.11-13.48.195-20.219a16298 16298 0 0 1 22.422-5.062q7.803-1.754 15.594-3.563c14.431-3.323 28.872-5.977 43.492-8.297 3.708-.594 7.368-1.237 11.023-2.098 5.884-1.368 11.864-2.1 17.844-2.918 7.147-.985 14.282-1.997 21.403-3.152 10.712-1.735 21.443-3.103 32.222-4.347l5.57-.649q4.226-.492 8.452-.98a1501 1501 0 0 0 16.482-2.004c61.407-7.707 123.582-9.119 185.4-9.985"/><path fill="#FCFDFC" d="M57 371c4.652.93 8.121 2.403 12.25 4.563 13.607 7.052 27.536 13.328 41.7 19.175a10319.238 10319.238 0 0 0 11.504 4.774l2.02.84c6.47 2.667 12.988 5.134 19.526 7.648v266l44-5c9.314-.831 18.614-1.633 27.938-2.312l6.642-.51 6.322-.479 2.884-.217 2.663-.194 2.31-.17c2.41-.127 4.827-.118 7.241-.118V441c6.137.682 11.474 1.484 17.313 3.125q2.48.675 4.96 1.344l2.734.738c5.794 1.535 11.614 2.971 17.43 4.418l3.515.875 6.417 1.596c5.211 1.297 10.42 2.601 15.631 3.904v207h87l13 1-.092-5.937c-.147-9.646-.28-19.292-.408-28.938l-.036-2.712c-.453-34.534-.551-69.064-.526-103.6l.002-3.626q.017-22.094.06-44.187c4.357-.032 8.376.105 12.66.906 6.239 1.103 12.484 1.88 18.777 2.594 8.563.976 17.036 2.188 25.563 3.5v231l-38 4c-7.751 1.137-15.472 2.282-23.198 3.552-4.342.694-8.696 1.287-13.052 1.885-8.108 1.137-16.194 2.407-24.272 3.738q-2.868.47-5.737.936a310 310 0 0 0-20.86 4.224c-3.614.834-7.219 1.452-10.881 2.04-9.216 1.553-18.255 3.745-27.328 5.972-3.447.842-6.9 1.663-10.353 2.481q-3.9.926-7.8 1.86c-3.895.93-7.794 1.843-11.695 2.75-11.353 2.656-22.548 5.559-33.687 9.003-5.742 1.767-11.533 3.343-17.324 4.934C211.09 764.897 198.537 768.872 186 773l-3.3 1.085a4612 4612 0 0 0-9.762 3.227l-2.973.987-2.813.94-2.437.813c-2.894 1.01-5.76 2.08-8.627 3.16q-2.971 1.12-5.948 2.223c-30.043 11.161-60.106 22.772-88.68 37.374C59 824 59 824 57 824zM1344 357v122c-3.86 1.287-7.226 2.345-11.143 3.126l-2.978.599-3.195.63-3.368.674q-5.438 1.085-10.879 2.159l-7.571 1.503q-10.93 2.166-21.866 4.309l-2.82.554c-20.265 3.974-40.584 7.606-60.93 11.134l-3.262.565a3190 3190 0 0 1-35.394 5.938l-3.045.496c-10.747 1.72-21.652 3.313-32.549 3.313v60l9-1q3.24-.234 6.482-.401l3.675-.194 3.956-.202 4.249-.224 9.146-.479q12.44-.648 24.879-1.316l2.63-.141a6036 6036 0 0 0 41.44-2.383l2.814-.17c9.076-.549 18.15-1.102 27.225-1.667q5.1-.316 10.199-.625 2.31-.141 4.618-.288c16.225-1.033 32.42-1.402 48.687-1.91v276c-4.23-1.692-7.849-3.625-11.687-6-45.13-27.38-93.917-47.259-144-63.562l-2.693-.879c-15.124-4.913-30.352-9.367-45.807-13.121-9.459-2.322-9.459-2.322-13.672-3.5-8.39-2.345-16.776-4.1-25.35-5.632l-2.627-.474-2.36-.415C1094 745 1094 745 1093 744a98 98 0 0 1-.114-5.346v-3.458l.016-3.762.005-3.83q.007-5.047.024-10.096.014-5.147.02-10.295.017-10.107.049-20.213c13.458 1.675 26.814 3.884 40.188 6.125l3.56.595a3573 3573 0 0 1 52.474 9.148c9.209 1.673 18.381 3.434 27.525 5.435 6.52 1.397 13.083 2.585 19.64 3.802 19.005 3.591 19.005 3.591 23.613 5.895v-76l-22-1c-5.73-.384-11.455-.787-17.18-1.234l-4.7-.359q-6.216-.475-12.433-.959-6.507-.503-13.012-1.001-10.629-.818-21.258-1.642-11.347-.879-22.695-1.742-9.066-.69-18.133-1.388-5.26-.405-10.52-.805-5.778-.439-11.553-.89l-3.436-.258-3.118-.245-2.703-.207C1095 630 1095 630 1092 629V453c15.983-4.262 15.983-4.262 23.374-6.026 13.032-3.134 25.789-6.979 38.556-11.049 5.024-1.6 10.059-3.161 15.097-4.714 45.36-14.021 90.407-30.29 132.697-52.042q2.486-1.276 4.978-2.541c10.93-5.554 21.64-11.126 31.751-18.081C1341 357 1341 357 1344 357M1059 461v392c-11.175-5.588-11.175-5.588-14.945-7.727-54.9-30.779-117.112-50.56-178.914-61.698a448 448 0 0 1-8.328-1.61c-5.259-1.054-10.537-2.006-15.813-2.965v-47c52.562 7.509 106.054 15.716 157 31v-39l-18-2c-3.395-.42-6.785-.846-10.176-1.297l-5.424-.707-2.813-.368a3215 3215 0 0 0-55.712-6.753l-3.115-.351c-19.913-2.242-39.838-4.37-59.76-6.524V491c14.843-1.855 29.654-3.652 44.527-5.192 20.772-2.154 41.52-4.368 62.163-7.55a1130 1130 0 0 1 16.072-2.348c27.024-3.77 54.043-7.758 80.742-13.437l2.805-.59 2.4-.52C1054 461 1054 461 1059 461"/><path fill="#FDFEFD" d="M809 492v212c-18.003 0-36.003-.539-54-1V549H646v152c-42 2-42 2-55 2V493c8.952 0 17.77.053 26.688.49 13.767.605 27.518.674 41.296.678l5.898.007q9.255.012 18.51.01 8.304 0 16.608.02c31.279.079 62.497-.075 93.734-1.905 5.115-.289 10.12-.3 15.266-.3"/><path fill="#00A73D" d="M1000 532v136c-16.09 0-16.09 0-22.663-.427l-2.288-.138q-3.66-.225-7.319-.458l-5.198-.322q-5.418-.337-10.834-.681-6.867-.435-13.735-.854-5.36-.33-10.72-.67-2.529-.158-5.058-.313-3.567-.22-7.133-.451l-2.015-.12c-8.065-.534-15.977-1.618-24.037-2.566V538l35.813-2.437 11.182-.764 6.79-.46q2.217-.15 4.433-.303 7.89-.54 15.782-1.036l2.34-.149q3.582-.22 7.163-.425l2.078-.131c8.49-.468 16.876-.295 25.419-.295"/><path fill="#FDFEFD" d="M501 486c25.806 1.173 25.806 1.173 37.688 2l3.814.25 3.635.25 3.21.219C552 489 552 489 555 490v216c-17.983 1.028-35.988 2-54 2z"/><path fill="#0BA940" d="M66 384c5.417 1.083 6.708 1.756 10 6 .621 3.205.621 3.205.615 6.909l.018 2.08c.013 2.304-.01 4.607-.032 6.912q.004 2.5.013 5c.011 4.583-.009 9.166-.034 13.75-.021 4.941-.014 9.883-.01 14.824q.002 12.844-.041 25.688c-.041 12.38-.054 24.76-.06 37.14-.011 20.085-.045 40.17-.092 60.254a46379 46379 0 0 0-.106 62.181l-.02 18.097C76.2 692.89 76.112 742.945 76 793l2.791-1.28q5.24-2.403 10.484-4.796 2.248-1.027 4.494-2.058c19.659-9.02 39.74-16.934 60.231-23.866l3.34-1.152a648 648 0 0 1 9.3-3.08q2.536-.826 5.068-1.668c60.346-19.98 123.579-31.702 186.48-40.038l2.32-.308c8.493-1.12 16.963-1.993 25.514-2.546 3.465-.242 6.853-.657 10.29-1.145 7.149-.954 14.314-1.6 21.5-2.188l3.144-.265c6.696-.53 13.328-.714 20.044-.61v1l-3.107.396c-18.576 2.37-37.111 4.795-55.559 8.03-3.957.681-7.918 1.332-11.88 1.98-14.01 2.295-28.01 4.615-41.954 7.282l-3.03.575c-5.99 1.168-11.897 2.558-17.809 4.065a212 212 0 0 1-9.036 2.047c-28.612 6.063-57.357 12.506-85.371 20.95a586 586 0 0 1-6.691 1.952c-35.666 10.323-71.367 22.387-104.876 38.441a662 662 0 0 1-7.964 3.723c-8.113 3.756-15.96 7.636-23.57 12.344C68 812 68 812 66 812z"/><path fill="#813B5B" d="M788.813 115.5c6.26 7.156 5.67 18.211 5.562 27.188l-.033 3.745C794.018 165.07 790.305 184.055 777 198l-2.055 2.176c-6.873 6.69-14.295 9.77-23.82 10.699-6.674-.265-10.553-3.65-15.45-7.828-4.12-3.508-8.563-6.47-13.05-9.484l-2.435-1.69c-3.823-2.652-7.63-5.161-11.706-7.408-9.621-5.588-9.621-5.588-11.193-10.829-.813-5.362-.662-10.621-.356-16.02.106-4.244-.4-8.41-.935-12.616 7.132-5.015 14.622-9.222 22.313-13.312l1.856-.991c48.598-25.888 48.598-25.888 68.644-15.197"/><path fill="#009DE1" d="M637.995 120.026c2.023.983 4.06 1.925 6.107 2.857 14.131 6.455 27.683 13.95 40.898 22.117l-.402 1.703c-1.005 4.781-1.672 9.172-1.391 14.059.553 12.764.553 12.764-2.558 17.137-3.674 3.596-7.977 6.2-12.403 8.773-2.877 1.701-5.596 3.588-8.331 5.506a388 388 0 0 1-5.958 4.064 134 134 0 0 0-7.945 5.89c-10.814 8.56-10.814 8.56-16.45 8.68-2.37-.316-2.37-.316-4.562-.812l-2.035-.277c-10.1-1.787-18.146-8.614-23.965-16.723-10.547-15.879-12.336-32.486-12.438-51.188l-.019-2.027c-.104-17.617-.104-17.617 4.802-23.36 13.538-12.062 32.76-3.244 46.65 3.601"/><path fill="#02A83C" d="M1052 471v366c-4.482-.896-7.627-2.216-11.562-4.312-18.389-9.461-37.71-17.087-57.214-23.9a279 279 0 0 1-6.076-2.241C944.621 794.277 910.837 786.622 877 779v-1c7.347.495 14.29 1.568 21.438 3.313 7.124 1.683 14.247 3.249 21.437 4.625 15.822 3.078 31.453 7.105 46.876 11.78a890 890 0 0 0 9.952 2.943c9.805 2.851 19.543 5.898 29.273 8.996q3.98 1.266 7.962 2.527l5.226 1.66 2.322.736c5.126 1.634 10.235 3.32 15.339 5.025L1044 822l-.005-2.199a115636 115636 0 0 1-.215-144.444l-.003-3.113c-.017-16.64-.049-33.281-.086-49.922q-.056-25.605-.067-51.21a12352 12352 0 0 0-.056-31.61q-.03-10.83-.022-21.663c.003-4.17-.001-8.338-.023-12.507q-.028-5.724-.007-11.447.003-2.071-.016-4.143c-.11-12.898-.11-12.898 4.5-17.742 2-1 2-1 4-1"/><path fill="#0CA940" d="M1337 572v254c-11-6-11-6-15.832-8.719-28.27-15.868-57.877-27.893-88.168-39.281l-2.04-.768c-13.37-5.026-26.808-9.573-40.532-13.526-3.347-.973-6.682-1.988-10.018-3-21.62-6.553-43.47-12.327-65.41-17.706v-1c9.27.636 18.153 2.635 27.188 4.688l2.42.545c20.974 4.725 41.561 10.255 62.068 16.723q3.546 1.113 7.097 2.205c9.569 2.947 19.04 6.12 28.477 9.464l2.216.785c23.936 8.492 47.308 18.057 70.495 28.403l1.89.841c3.767 1.689 7.462 3.491 11.149 5.346l-.008-3.606a69206 69206 0 0 1-.157-95.186l-.002-2.097c-.013-11.21-.037-22.418-.064-33.627q-.043-17.251-.051-34.504-.004-9.69-.035-19.38a4460 4460 0 0 1-.022-18.236q-.001-3.349-.019-6.698c-.015-3.046-.011-6.09-.003-9.137l-.026-2.682c.036-5.017.57-8.511 3.387-12.847 2-1 2-1 6-1"/><path fill="#823C5B" d="M697 195c4.132.675 7.751 1.982 11.629 3.547l1.91.767q3.014 1.214 6.024 2.436l3.962 1.594c3.219 1.295 6.432 2.603 9.643 3.914a616 616 0 0 0 5.334 2.123l3.217 1.287 2.814 1.11c7.377 3.654 10.768 10.871 13.588 18.261 1.677 5.648 1.49 9.915-.183 15.524-4.73 8.391-11.343 14.14-19.938 18.437-8.153.906-13.372-1.259-20-6-6.816-5.88-12.324-12.291-17-20h9c-2.24-4.48-3.377-5.013-7.625-7.312-2.992-1.817-2.992-1.817-5.375-3.688-.825-4.124-.308-6.077 1-10 .214-1.698.387-3.4.535-5.105l.264-2.979.264-3.103.275-3.14q.335-3.836.662-7.673"/><path fill="#019DE0" d="M683 195c.508 3.832 1.005 7.666 1.5 11.5l.434 3.266c.393 3.075.742 6.15 1.066 9.234l.302 2.415c.163 2.097.163 2.097-.302 5.585-2.59 2.426-2.59 2.426-5.937 4.313-4.692 2.363-4.692 2.363-7.063 6.687h9c-2.766 5.531-6.807 9.502-11 14l-1.797 2.031c-5.155 5.598-11.208 9.418-18.828 10.469-9.275-1.374-15.262-5.52-21.21-12.723-4.605-6.646-5.577-12.84-4.165-20.777 2.56-7.104 6.34-15.375 13.173-19.224 2.669-1.187 5.36-2.26 8.089-3.3l2.99-1.184c3.14-1.239 6.287-2.453 9.436-3.667q3.193-1.257 6.384-2.52c3.88-1.524 7.76-3.049 11.65-4.548l2.363-.914C681 195 681 195 683 195"/><path fill="#F6FAF4" d="M732 403h57v32h-42v5h42v15h-57z"/><path fill="#F7FBF6" d="M662 403h56v32h-41v5h42v15h-57z"/><path fill="#FDFDFC" d="M522 403h56v14h-42v23h28v-5h-13v-14c9.142-.813 17.719-1 27-1v34h-56z"/><path fill="#03A73C" d="m1012 374 1 2c-8.95 17.487-23.743 28.08-42.154 34.146l-2.096.666-1.967.628c-12.786 3.853-30.814 5.262-43.127-.545-7.111-4.187-7.111-4.187-8.656-7.895-.277-4.745.277-8.022 3.125-11.875 6.999-5.173 12.844-5.565 21.328-5.566l3.321-.04c3.492-.041 6.984-.063 10.476-.082q5.216-.034 10.433-.091 3.237-.037 6.475-.044c10.399-.106 19.67-1.846 29.28-5.802l2.35-.934c3.482-1.395 6.87-2.857 10.212-4.566M366 374a381 381 0 0 1 8.313 3.402l3.687 1.536 3.625 1.527q2.178.794 4.375 1.535l2.473.842c13.04 3.7 26.995 2.627 40.42 2.67 3.47.015 6.939.048 10.408.082l3.198-.01c6.549.067 12.754.414 18.092 4.69 2.553 2.674 3.397 4.64 3.909 8.289-.755 5.187-2.208 7.454-6.375 10.625-12.4 7.191-29.801 6.5-43.347 2.97-19.16-5.521-36.3-14.606-46.778-32.158-.73-1.978-1.416-3.974-2-6"/><path fill="#0CA940" d="M251 449c4.626 1.157 5.373 2.195 8 6 1.254 3.762 1.135 7.263 1.12 11.181l.003 2.557q0 4.256-.01 8.513l.001 6.09q-.001 8.28-.013 16.56-.007 8.65-.008 17.297-.005 16.384-.021 32.767-.016 18.649-.022 37.298-.016 38.368-.05 76.737h-9z"/><path fill="#FBFDFA" d="M803 403h56v52h-14v-38h-28v38h-14z"/><path fill="#06A83E" d="M1334 370h3v103c-4.206 1.682-8.164 2.82-12.555 3.77-.729.16-1.458.322-2.209.488q-3.555.782-7.111 1.555l-4.957 1.087q-4.894 1.074-9.789 2.141-5.29 1.156-10.57 2.35c-13.045 2.927-26.162 5.427-39.302 7.883-7.823 1.462-15.642 2.937-23.448 4.484-16.467 3.26-32.953 6.337-49.496 9.18l-2.724.471q-3.823.659-7.648 1.306l-2.292.396c-3.671.613-7.176 1.04-10.899.889 2.698-1.45 5.144-2.386 8.137-3.018l2.461-.529 2.66-.555 2.797-.598q2.98-.637 5.963-1.267c5.246-1.11 10.49-2.24 15.732-3.369l3.181-.685c9.092-1.966 18.148-4.064 27.194-6.229a1245 1245 0 0 1 33.262-7.462c10.538-2.232 21.016-4.699 31.488-7.222 13.653-3.273 27.39-6.157 41.125-9.066l.018-3.414q.086-15.936.218-31.87c.044-5.461.084-10.923.11-16.384q.04-7.908.117-15.814.025-3.015.035-6.03c.01-2.819.037-5.636.07-8.453l-.005-2.514c.095-5.859 1.14-10.224 5.437-14.521"/><path fill="#FCFDFB" d="M592 403h56v28h-14v-14h-28v38h-14z"/><path fill="#15AB44" d="M505 494c4 1 4 1 6 4 .19 2.699.26 5.293.24 7.992l.006 2.495c.003 2.768-.008 5.536-.019 8.305v5.942c.002 5.386-.01 10.772-.024 16.158-.013 5.625-.014 11.25-.016 16.876-.006 10.657-.023 21.313-.043 31.97-.022 12.13-.033 24.26-.043 36.391Q511.068 661.565 511 699l29 1v2c-3.208.173-6.416.337-9.625.5l-2.68.145c-7.595.38-15.06.355-22.695.355z"/><path fill="#06A83E" d="M417 485c4 1 4 1 5.727 2.615 1.756 3.29 1.642 5.823 1.634 9.548l.008 2.188c.004 2.42-.012 4.84-.028 7.26v5.203c.002 4.71-.016 9.42-.037 14.131-.019 4.922-.02 9.844-.024 14.766-.01 9.322-.034 18.643-.064 27.964-.033 10.612-.05 21.224-.065 31.836-.031 21.83-.084 43.66-.151 65.489h-7z"/><path fill="#08A83B" d="m862 869 13.25-.25 4.161-.11 3.292-.03 3.364-.064c3.6.557 4.748 1.593 6.933 4.454.46 2.656.46 2.656.375 5.5l-.04 2.844C893 884 892.35 885.71 891 888l2 2c.371 2.426.371 2.426.438 5.313l.12 2.863C893 901 893 901 891.306 903.836c-5.249 3.437-10.504 2.689-16.617 2.476L862 906z"/><path fill="#05A83B" d="m617.434 868.469 2.466-.016 2.538.047 2.525-.047c3.856.025 6.91.506 10.596 1.703 4.19 4.881 3.221 10.654 3.066 16.844l.02 3.89c-.11 9.456-.11 9.456-2.558 12.446-4.262 3.398-8.133 2.918-13.4 2.976l-2.591.088-2.522.026-2.294.044c-3.347-.69-4.944-2-7.28-4.47-.647-3.053-.647-3.053-.664-6.594l-.02-3.87.032-2.008c.027-2.023 0-4.04-.032-6.063l.02-3.871.017-3.541C608 873 608 873 610.264 870.62c2.726-1.615 4.06-2.133 7.17-2.152"/><path fill="#12AB43" d="M595 499c3 1 3 1 4.172 2.584 1.149 3.353 1.097 6.57 1.069 10.072l.005 2.35c.003 2.599-.008 5.198-.019 7.798v5.588c.002 5.06-.01 10.119-.024 15.178-.013 5.287-.014 10.573-.016 15.86-.006 10.011-.023 20.023-.043 30.035-.022 11.398-.033 22.796-.043 34.193Q600.068 657.83 600 693l1.893.168q4.303.383 8.607.77l2.977.263C619 694.698 624.5 695.273 630 696v1h-35z"/><path fill="#009DE0" d="M695 289h36v33h-9v-9h-18v9h-9z"/><path fill="#06A83E" d="M803 498h2v201c-11.25 0-11.25 0-17-1v-1h12l-.008-3.016q-.1-36.304-.147-72.608-.022-17.557-.071-35.113-.046-15.3-.056-30.6c-.004-5.402-.013-10.804-.035-16.206q-.03-7.624-.022-15.25-.001-2.8-.019-5.6a842 842 0 0 1-.003-7.64l-.026-2.244c.038-4.384.62-7.266 3.387-10.723"/><path fill="#0DA93A" d="m643 869 13.188-.312 4.133-.138c8.823-.102 8.823-.102 13.003 2.595 2.855 4.864 2.618 9.396 1.676 14.855-2.187 3.25-2.187 3.25-5 5-2.676.11-2.676.11-5 0l1.934 2.52 2.504 3.293 1.275 1.658c1.898 2.506 3.285 4.523 4.287 7.529-3.897.787-7.13 1.004-11 0-4.205-4.053-7.382-8.764-10-14l-1 14h-10z"/><path fill="#09A83A" d="m572 869 12.688-.312 3.975-.138c8.464-.102 8.464-.102 12.63 2.532 2.08 3.555 2.376 5.811 2.332 9.918l.04 3.625c-.862 4.376-2.017 5.827-5.665 8.375-2.809.567-5.462.478-8.312.313l-2.245-.069c-1.815-.058-3.63-.148-5.443-.244v13h-10z"/><path fill="#85445B" d="M649 289h37v34h-10v-25h-17v25h-10z"/><path fill="#0DA93A" d="m503.313 868.688 3.4.068q4.145.088 8.287.244v8h-19v6h19v8h-20l1 6 19 1v8c-3.729.087-7.458.14-11.187.188l-3.198.076-3.095.029-2.841.048c-3.212-.409-5.073-1.453-7.679-3.341-2.224-4.448-1.32-10.429-1.375-15.312l-.113-3.749c-.086-8.847-.086-8.847 2.242-13.275 5.09-2.61 9.935-2.19 15.558-1.976"/><path fill="#0CA93A" d="m725.813 868.75 3.255.055q3.967.07 7.932.195v8l-18 1v4l2.484.148 3.266.227c1.067.07 2.135.14 3.234.21 2.872.395 4.619.828 7.016 2.415 2.329 3.493 2.386 5.23 2.5 9.375l.156 3.398c-.71 3.495-1.69 5.204-4.593 7.325-4.413 1.93-9.217 1.403-13.938 1.215l-3.242-.069c-2.63-.059-5.255-.14-7.883-.244v-8l18-1v-5l-2.703-.078-3.547-.172-3.516-.14c-3.234-.61-3.234-.61-5.62-2.22-2.183-3.233-2.18-5.513-2.177-9.39l-.066-3.687C709 873 709 873 710.797 870.578c4.924-2.426 9.61-2 15.015-1.828"/><path fill="#0BA93A" d="m555.813 868.75 3.255.055q3.967.07 7.932.195v8l-18 1-1 5 2.703-.07 3.547-.055 3.516-.07c3.111.188 4.704.442 7.234 2.195 2.329 3.493 2.386 5.23 2.5 9.375l.156 3.398c-.713 3.508-1.712 5.199-4.624 7.325-4.26 1.89-8.841 1.406-13.407 1.215l-3.098-.069A422 422 0 0 1 539 906v-8l17-1v-5l-2.703-.078-3.547-.172-3.516-.14c-3.234-.61-3.234-.61-5.62-2.22-2.183-3.233-2.18-5.513-2.177-9.39l-.066-3.687C539 873 539 873 540.797 870.578c4.924-2.426 9.61-2 15.015-1.828"/><path fill="#05A83B" d="M825 869h9l1 28h11l1-28h9q.148 6.725.22 13.452.03 2.288.082 4.574c.048 2.195.071 4.388.089 6.583l.063 4C856 901 856 901 854.101 903.398c-4.327 3.297-8.144 2.82-13.413 2.851l-2.592.063c-4.845.03-8.19-.101-12.096-3.313-1.48-2.958-1.122-5.955-1.098-9.195l.005-2.144c.005-2.262.018-4.524.03-6.786q.008-2.299.014-4.598.017-5.639.049-11.277"/><path fill="#12AA43" d="M882 540h3v121h-6q-.106-22.557-.155-45.115-.022-10.474-.071-20.947c-.033-6.737-.05-13.474-.059-20.21a1868 1868 0 0 0-.032-7.717 1680 1680 0 0 1-.024-10.795l-.032-3.232c.04-9.384.04-9.384 3.373-12.984"/><path fill="#86465A" d="M614 288h10v35h-37v-17h9v7h18z"/><path fill="#0DA93A" d="m776.313 868.688 3.4.068q4.145.088 8.287.244v8l-18 1v19l18 1v8a775 775 0 0 1-11.187.25l-3.198.102c-7.858.099-7.858.099-11.79-2.243-4.21-4.867-3.127-10.764-3.2-16.922l-.113-3.603c-.086-8.502-.086-8.502 2.242-12.889 5.084-2.655 9.923-2.222 15.558-2.008"/><path fill="#019EDE" d="M757 289h37v16h-10v-7h-18v24h-9z"/><path fill="#08A83B" d="M678 869h28v8h-10v29h-9v-29h-9z"/><path fill="#05A83B" d="M793 870h9l1 27 18 1v8c-3.562.087-7.124.14-10.687.188l-3.053.076c-9.246.091-9.246.091-13.26-3.264-1-1-1-1-1.114-4.051q0-2.024.016-4.047l.005-2.148c.005-2.272.018-4.544.03-6.817q.008-2.306.014-4.61.017-5.664.049-11.327"/><path fill="#13A3D1" d="M740 288h10v35h-10z"/><path fill="#884A5A" d="M631 288h10v35h-10z"/><path fill="#C6D205" d="m620.25 876.867 2.75.008 2.75-.008C628 877 628 877 629 878c.099 1.403.13 2.812.133 4.219l.004 2.574-.012 2.707.012 2.707-.004 2.574-.004 2.377C629 897 629 897 628 898c-1.664.098-3.333.13-5 .125l-2.75.008C618 898 618 898 617 897a62 62 0 0 1-.133-4.219l-.004-2.574.012-2.707-.012-2.707.004-2.574.004-2.377c.193-2.76.62-2.812 3.379-2.975"/><path fill="#00A73C" d="M747 417h27v6h-27z"/><path fill="#00A73B" d="M677 417h27v6h-27z"/><path fill="#05A83B" d="M518 886h17v7h-17z"/><path fill="#56BB66" d="M877 778c7.347.495 14.29 1.568 21.438 3.313a614 614 0 0 0 24.864 5.343c4.947.961 9.819 2.083 14.698 3.344l-1 3c-6.152-1.11-12.157-2.551-18.187-4.187-13.824-3.735-27.836-6.719-41.813-9.813z"/><path fill="#C7D211" d="M704 298h18v6h-18z"/><path fill="#B7CE0D" d="M581 877q2.969-.04 5.938-.062l3.34-.036C593 877 593 877 594 878c.04 2 .043 4 0 6-2.645 1.322-4.678 1.097-7.625 1.063l-3.04-.028L581 885z"/><path fill="#C1D108" d="M653 877q2.718-.04 5.438-.062l3.058-.036C664 877 664 877 665 878c.125 3 .125 3 0 6-1.563 1.563-3.277 1.306-5.437 1.5-3.408.291-3.408.291-6.563 1.5z"/><path fill="#B1CC10" d="M871 891q2.969-.04 5.938-.062l3.34-.036C883 891 883 891 884 892c.125 2.5.125 2.5 0 5-1 1-1 1-3.723 1.098l-3.34-.035-3.347-.028L871 898z"/><path fill="#C8D304" d="M872 877h11v6h-11z"/><path fill="#56BB66" d="M1115 742c7.694.568 15.092 1.929 22.625 3.563l3.332.708q4.023.858 8.043 1.729l-1 3a1766 1766 0 0 1-33-8z"/><path fill="#51BA62" d="M1183 504v1q-5.842 1.008-11.687 2l-3.342.578-3.233.547-2.967.508c-2.63.348-5.122.435-7.771.367 4.142-2.21 8.26-3.163 12.813-4.187l2.369-.577c4.99-1.13 8.803-1.287 13.818-.236"/><path fill="#2CB150" d="M906 784c11.522.779 11.522.779 17 3v2q-3.69-.675-7.375-1.375l-2.117-.383c-5.281-1.015-5.281-1.015-7.508-3.242"/><path fill="#1CAC47" d="M1193 501v2c-2.995.872-5.636 1.108-8.75 1.063l-2.422-.028L1180 504c2.277-2.277 3.413-2.521 6.5-3.187l2.406-.543C1191 500 1191 500 1193 501"/></svg>