<svg xmlns="http://www.w3.org/2000/svg" xml:space="preserve" width="640" height="860" viewBox="0 0 169.33333 227.54167"><g style="display:inline"><path d="M71.655 61.552 59.824 91.927l-57.52.015v-.025l-.022.075.149 35.696c-.118 8.315 3.612 26.312 10.88 39.614 2.214 4.053 8.898 15.183 20.588 25.65 2.908 2.604 6.629 5.764 11.197 8.725 10.13 6.566 25.567 15.075 39.57 23.22 8.321-4.47 9.22-5.553 23.664-13.737 10.732-6.08 19.623-11.128 29.311-20.188 4.549-4.253 6.716-6.858 9.666-10.5 10.492-12.948 18.458-31.303 19.623-51.463.59-10.189.125-20.872.287-37.144l-.122-.016-54.594-.104-14.549 37.286-26.297-67.48zm-.88 82.514h28.973v5.734H76.465v2.5h23.283v5.5H76.465v2.6h23.283v5.626H70.776v-21.96zm33.074 0h26.59l4.267 10.947-4.3 11.013H103.85v-13.824h5.82v8.003h16.736l2.183-5.192-2.117-5.26H103.85l-.001-5.687zm-67.469.132h23.046c4.301 0 7.19 4.442 7.38 6.505v7.386H54.883l12.37 7.937H56.886l-12.435-8.022v-5.736h16.588c.518-.564-.398-2.382-1.959-2.382H42.2v16.14h-5.819v-21.828zm21.785 25.664 10.617.024-.024 9.7-10.546.048-.047-9.772zm21.948 0 7.574.001c1.104 0 3.022 1.613 3.037 3.155l.023 2.378-4.204.047 4.749 4.144-2.929.023-4.981-4.26.023-1.766 5.402-.047c0-.908-.484-1.788-1.54-1.78l-5.297.048-.022 7.804-1.812-.022-.023-9.725zm44.062.011 10.585.033v1.852h-8.746l-.033 1.997 8.812.033-.033 1.86h-8.746l.033 2.064 8.746.033-.033 1.795h-10.618l.033-9.667zm-88.016.033h10.673l-.033 1.884-8.647.033v2.347l8.647-.033.033 1.943-8.746.033.033 3.427h-1.927l-.033-9.634zm65.996 0h10.59v1.852L104 171.74l-.033 5.938 8.73.016.031 1.845h-10.573v-9.634zm-35.277 1.921-6.81.025.013 5.898 6.797-.023v-5.9z" style="display:inline;fill:#fff;fill-opacity:1;stroke-width:.916001;stroke-opacity:.493562" transform="matrix(1.00232 0 0 1.00232 -.075 -.456)"/><path d="M84.667 3.368c-4.605 4.508-10.997 8.06-18.327 11.089-21.104 8.718-49.744 11.876-64.013 11.478L2.245 81.01l.07.005v-.017l50.01.122 19.272-49.21L97.94 99.157l7.132-18.158 62.033-.176.11-54.958c-6.153.252-13.86-.175-22.308-1.159-13.754-1.602-29.447-4.927-43.4-11.037-6.216-2.721-13.757-6.747-16.841-10.301Z" style="display:inline;fill:#fff;fill-opacity:1;stroke-width:.916001;stroke-opacity:.493562" transform="matrix(1.00232 0 0 1.00232 -.075 -.456)"/></g></svg>